<svg id="visual" viewBox="0 0 900 600" width="900" height="600" xmlns="http://www.w3.org/2000/svg" xmlns:xlink="http://www.w3.org/1999/xlink" version="1.1"><rect x="0" y="0" width="900" height="600" fill="#001220"></rect><defs><linearGradient id="grad1_0" x1="33.3%" y1="0%" x2="100%" y2="100%"><stop offset="20%" stop-color="#001220" stop-opacity="1"></stop><stop offset="80%" stop-color="#001220" stop-opacity="1"></stop></linearGradient></defs><defs><linearGradient id="grad2_0" x1="0%" y1="0%" x2="66.7%" y2="100%"><stop offset="20%" stop-color="#001220" stop-opacity="1"></stop><stop offset="80%" stop-color="#001220" stop-opacity="1"></stop></linearGradient></defs><g transform="translate(900, 0)"><path d="M0 459.7C-38.2 455.3 -76.3 450.8 -119 444C-161.7 437.2 -208.8 428.1 -224 388C-239.2 347.9 -222.3 276.8 -249.6 249.6C-276.9 222.4 -348.4 239.1 -387.1 223.5C-425.9 207.9 -431.9 160.1 -438.5 117.5C-445.2 74.9 -452.4 37.4 -459.7 0L0 0Z" fill="#009473"></path></g><g transform="translate(0, 600)"><path d="M0 -459.7C38.8 -449.5 77.6 -439.4 113.6 -424C149.7 -408.7 183 -388.3 210.5 -364.6C238 -340.9 259.8 -314 293.4 -293.4C327.1 -272.9 372.7 -258.7 398.1 -229.9C423.5 -201 428.7 -157.5 435.6 -116.7C442.5 -76 451.1 -38 459.7 0L0 0Z" fill="#009473"></path></g></svg>